<?xml version="1.0" encoding="utf-8" standalone="no"?>
<!DOCTYPE svg PUBLIC "-//W3C//DTD SVG 1.1//EN"
  "http://www.w3.org/Graphics/SVG/1.1/DTD/svg11.dtd">
<svg xmlns:xlink="http://www.w3.org/1999/xlink" width="1080pt" height="216pt" viewBox="0 0 1080 216" xmlns="http://www.w3.org/2000/svg" version="1.1">
 <metadata>
  <rdf:RDF xmlns:dc="http://purl.org/dc/elements/1.1/" xmlns:cc="http://creativecommons.org/ns#" xmlns:rdf="http://www.w3.org/1999/02/22-rdf-syntax-ns#">
   <cc:Work>
    <dc:type rdf:resource="http://purl.org/dc/dcmitype/StillImage"/>
    <dc:date>2026-06-02T12:14:19.183364</dc:date>
    <dc:format>image/svg+xml</dc:format>
    <dc:creator>
     <cc:Agent>
      <dc:title>Matplotlib v3.10.9, https://matplotlib.org/</dc:title>
     </cc:Agent>
    </dc:creator>
   </cc:Work>
  </rdf:RDF>
 </metadata>
 <defs>
  <style type="text/css">*{stroke-linejoin: round; stroke-linecap: butt}</style>
 </defs>
 <g id="figure_1">
  <g id="patch_1">
   <path d="M 0 216 
L 1080 216 
L 1080 0 
L 0 0 
z
" style="fill: #ffffff"/>
  </g>
  <g id="axes_1">
   <g id="matplotlib.axis_1"/>
   <g id="matplotlib.axis_2"/>
   <g id="patch_2">
    <path d="M 620.028 109.08 
C 620.028 99.543649 617.97754 90.117838 614.015997 81.443269 
C 610.054453 72.768699 604.273666 65.046472 597.066572 58.80149 
C 589.859479 52.556509 581.393161 47.93355 572.243099 45.24685 
C 563.093037 42.56015 553.471357 41.871995 544.032072 43.22916 
C 534.592788 44.586325 525.554729 47.957348 517.532241 53.113089 
C 509.509753 58.268831 502.688819 65.089766 497.53308 73.112256 
C 492.37734 81.134746 489.00632 90.172805 487.649158 99.61209 
C 486.291995 109.051374 486.980153 118.673055 489.666855 127.823116 
L 553.5 109.08 
z
" style="fill: #1f77b4; stroke: #ffffff; stroke-linejoin: miter"/>
   </g>
   <g id="patch_3">
    <path d="M 489.666855 127.823118 
C 493.094278 139.49584 499.658699 150.007846 508.642861 158.210559 
C 517.627023 166.413272 528.691331 171.996647 540.626923 174.350658 
C 552.562514 176.704665 564.918235 175.740317 576.344064 171.562986 
C 587.769893 167.38565 597.833971 160.153218 605.436671 150.65592 
L 553.5 109.08 
z
" style="fill: #ff7f0e; stroke: #ffffff; stroke-linejoin: miter"/>
   </g>
   <g id="patch_4">
    <path d="M 605.436671 150.65592 
C 610.125405 144.798751 613.789711 138.190413 616.274266 131.111032 
C 618.758821 124.031651 620.028 116.582698 620.028 109.079988 
L 553.5 109.08 
z
" style="fill: #2ca02c; stroke: #ffffff; stroke-linejoin: miter"/>
   </g>
  </g>
 </g>
</svg>
